<svg width="44" height="40" viewBox="0 0 44 40" fill="none" xmlns="http://www.w3.org/2000/svg">
<path d="M30.538 29.9088C30.5485 29.8982 30.5577 29.8868 30.5676 29.876L42.455 17.9863C43.4521 16.9892 44.0008 15.6609 44 14.2463C43.9991 12.8339 43.4501 11.5087 42.4551 10.5161L33.486 1.5443C32.4912 0.550179 31.1645 0.00274658 29.7506 0.00274658C28.3366 0.00274658 27.0103 0.550362 26.016 1.54458L1.54504 26.0114C0.547617 27.0088 -0.00109835 28.3382 1.65065e-06 29.7549C0.00119331 31.1689 0.550184 32.4943 1.54495 33.4858L7.28254 39.2246C7.28813 39.2302 7.29418 39.2349 7.29977 39.2403C7.31572 39.2554 7.33176 39.2706 7.34872 39.2846C7.35624 39.2907 7.36439 39.2961 7.37209 39.302C7.38813 39.3144 7.40409 39.3268 7.42086 39.3382C7.42728 39.3425 7.43415 39.346 7.44057 39.3501C7.45936 39.3621 7.47833 39.374 7.49804 39.3846C7.50272 39.387 7.50748 39.389 7.51216 39.3914C7.53407 39.4026 7.55634 39.4135 7.57926 39.4231C7.58228 39.4244 7.5854 39.4253 7.58852 39.4265C7.61318 39.4364 7.63802 39.4455 7.66359 39.4533C7.66671 39.4543 7.67001 39.4549 7.67313 39.4558C7.69843 39.4632 7.72409 39.4699 7.75022 39.4752C7.75773 39.4767 7.76534 39.4773 7.77286 39.4786C7.79477 39.4824 7.81677 39.4863 7.83923 39.4884C7.86948 39.4915 7.9 39.4931 7.93071 39.4931H20.5724H35.1756C35.6818 39.4931 36.0923 39.0826 36.0923 38.5765C36.0923 38.0703 35.6818 37.6598 35.1756 37.6598H22.7852L30.5053 29.9382C30.5161 29.9284 30.5274 29.9192 30.538 29.9088ZM20.1927 37.6599H8.31048L2.84029 32.1884C2.19166 31.5418 1.83406 30.6771 1.83333 29.7535C1.8326 28.8271 2.19056 27.9585 2.8413 27.3077L14.7419 15.4091L28.5919 29.2591L20.1927 37.6599ZM16.0384 14.1129L27.3123 2.84092C27.9603 2.19293 28.8263 1.83598 29.7506 1.83598C30.6751 1.83598 31.5414 2.19303 32.1898 2.84083L41.1593 11.8131C41.8083 12.4606 42.166 13.325 42.1667 14.2475C42.1672 15.172 41.8093 16.0393 41.1585 16.69L29.8881 27.9626L16.0384 14.1129Z" fill="black"/>
</svg>
