<svg width="36" height="36" viewBox="0 0 36 36" fill="none" xmlns="http://www.w3.org/2000/svg">
<path fill-rule="evenodd" clip-rule="evenodd" d="M15.9226 33.2769C15.2477 34.3683 14.1024 35.0037 12.8531 35.0037C12.6879 35.0037 12.5246 34.9911 12.3559 34.9696C10.918 34.7775 9.76921 33.7921 9.35815 32.3974L1.14944 4.67598C0.76889 3.39438 1.11892 2.01226 2.05952 1.06631C3.00012 0.129341 4.36794 -0.224267 5.64421 0.149085L33.3883 8.27309C34.7777 8.68055 35.7667 9.82574 35.9642 11.2671C36.1634 12.7084 35.5208 14.0798 34.2912 14.8498L22.882 21.9848L15.9226 33.2769ZM13.6303 31.8643L20.1948 21.2148C20.7897 20.2497 21.7076 19.5394 22.0921 19.3049L32.8642 12.5684C33.3291 12.2759 33.3219 11.8181 33.2968 11.6333C33.2716 11.452 33.1568 11.0104 32.6308 10.856L4.88671 2.73204C4.41102 2.59742 4.08253 2.85051 3.96765 2.96897C3.84917 3.08744 3.5853 3.4213 3.72891 3.91133L11.9376 31.6345C12.0956 32.1641 12.5318 32.2753 12.7131 32.3005C12.8944 32.3256 13.3431 32.331 13.6303 31.8643Z" fill="black"/>
</svg>
